# xmcd
#
# Track frame offsets:
#	150
#	16214
#	27222
#	37242
#	58088
#	72579
#	83149
#	98251
#	112376
#	129859
#	148778
#	158671
#	178155
#	187563
#
# Disc length: 2689 seconds
#
# Revision: 1
# Processed by: cddbd v1.5.2PL0 Copyright (c) Steve Scherf et al.
# Submitted via: audiograbber 1.83.01
#
DISCID=b80a7f0e
DTITLE=The Midnight Rockets - B-Blues Stuff
DYEAR=2006
DGENRE=Blues
TTITLE0=Bring It On Home
TTITLE1=Too Late
TTITLE2=Kid Stuff
TTITLE3=Medley: Hard Hearted Woman/Bad Boy
TTITLE4=Rockin' With My Cadillac
TTITLE5=That's It
TTITLE6=My Babe (Old Funk-ed)
TTITLE7=Quarter To Twelve
TTITLE8=Cookin' Boogie
TTITLE9=Oil-Groove-Slidin'
TTITLE10=Vibrosurfed
TTITLE11=Temperature
TTITLE12=Comet Rocket
TTITLE13=Epiphone's Blues (To Gloria Escriu)
EXTD=
EXTT0=
EXTT1=
EXTT2=
EXTT3=
EXTT4=
EXTT5=
EXTT6=
EXTT7=
EXTT8=
EXTT9=
EXTT10=
EXTT11=
EXTT12=
EXTT13=
PLAYORDER=
